<?xml version="1.0" encoding="utf-8"?>
<svg xmlns="http://www.w3.org/2000/svg" xmlns:xlink="http://www.w3.org/1999/xlink" width="600" height="400" viewBox="0 0 2400 1600">
<defs>
  <clipPath id="clip090">
    <rect x="0" y="0" width="2400" height="1600"/>
  </clipPath>
</defs>
<path clip-path="url(#clip090)" d="M0 1600 L2400 1600 L2400 0 L0 0  Z" fill="#ffffff" fill-rule="evenodd" fill-opacity="1"/>
<defs>
  <clipPath id="clip091">
    <rect x="178" y="47" width="2175" height="1440"/>
  </clipPath>
</defs>
<path clip-path="url(#clip090)" d="M178.867 1486.45 L2352.76 1486.45 L2352.76 47.2441 L178.867 47.2441  Z" fill="#ffffff" fill-rule="evenodd" fill-opacity="1"/>
<polyline clip-path="url(#clip091)" style="stroke:#000000; stroke-linecap:round; stroke-linejoin:round; stroke-width:2; stroke-opacity:0.1; fill:none" points="240.392,1486.45 240.392,47.2441 "/>
<polyline clip-path="url(#clip091)" style="stroke:#000000; stroke-linecap:round; stroke-linejoin:round; stroke-width:2; stroke-opacity:0.1; fill:none" points="753.102,1486.45 753.102,47.2441 "/>
<polyline clip-path="url(#clip091)" style="stroke:#000000; stroke-linecap:round; stroke-linejoin:round; stroke-width:2; stroke-opacity:0.1; fill:none" points="1265.81,1486.45 1265.81,47.2441 "/>
<polyline clip-path="url(#clip091)" style="stroke:#000000; stroke-linecap:round; stroke-linejoin:round; stroke-width:2; stroke-opacity:0.1; fill:none" points="1778.52,1486.45 1778.52,47.2441 "/>
<polyline clip-path="url(#clip091)" style="stroke:#000000; stroke-linecap:round; stroke-linejoin:round; stroke-width:2; stroke-opacity:0.1; fill:none" points="2291.23,1486.45 2291.23,47.2441 "/>
<polyline clip-path="url(#clip091)" style="stroke:#000000; stroke-linecap:round; stroke-linejoin:round; stroke-width:2; stroke-opacity:0.1; fill:none" points="178.867,1205.23 2352.76,1205.23 "/>
<polyline clip-path="url(#clip091)" style="stroke:#000000; stroke-linecap:round; stroke-linejoin:round; stroke-width:2; stroke-opacity:0.1; fill:none" points="178.867,833.262 2352.76,833.262 "/>
<polyline clip-path="url(#clip091)" style="stroke:#000000; stroke-linecap:round; stroke-linejoin:round; stroke-width:2; stroke-opacity:0.1; fill:none" points="178.867,461.296 2352.76,461.296 "/>
<polyline clip-path="url(#clip091)" style="stroke:#000000; stroke-linecap:round; stroke-linejoin:round; stroke-width:2; stroke-opacity:0.1; fill:none" points="178.867,89.331 2352.76,89.331 "/>
<polyline clip-path="url(#clip090)" style="stroke:#000000; stroke-linecap:round; stroke-linejoin:round; stroke-width:4; stroke-opacity:1; fill:none" points="178.867,1486.45 2352.76,1486.45 "/>
<polyline clip-path="url(#clip090)" style="stroke:#000000; stroke-linecap:round; stroke-linejoin:round; stroke-width:4; stroke-opacity:1; fill:none" points="240.392,1486.45 240.392,1467.55 "/>
<polyline clip-path="url(#clip090)" style="stroke:#000000; stroke-linecap:round; stroke-linejoin:round; stroke-width:4; stroke-opacity:1; fill:none" points="753.102,1486.45 753.102,1467.55 "/>
<polyline clip-path="url(#clip090)" style="stroke:#000000; stroke-linecap:round; stroke-linejoin:round; stroke-width:4; stroke-opacity:1; fill:none" points="1265.81,1486.45 1265.81,1467.55 "/>
<polyline clip-path="url(#clip090)" style="stroke:#000000; stroke-linecap:round; stroke-linejoin:round; stroke-width:4; stroke-opacity:1; fill:none" points="1778.52,1486.45 1778.52,1467.55 "/>
<polyline clip-path="url(#clip090)" style="stroke:#000000; stroke-linecap:round; stroke-linejoin:round; stroke-width:4; stroke-opacity:1; fill:none" points="2291.23,1486.45 2291.23,1467.55 "/>
<path clip-path="url(#clip090)" d="M217.776 1517.37 Q214.165 1517.37 212.336 1520.93 Q210.531 1524.47 210.531 1531.6 Q210.531 1538.71 212.336 1542.27 Q214.165 1545.82 217.776 1545.82 Q221.41 1545.82 223.216 1542.27 Q225.045 1538.71 225.045 1531.6 Q225.045 1524.47 223.216 1520.93 Q221.41 1517.37 217.776 1517.37 M217.776 1513.66 Q223.586 1513.66 226.642 1518.27 Q229.721 1522.85 229.721 1531.6 Q229.721 1540.33 226.642 1544.94 Q223.586 1549.52 217.776 1549.52 Q211.966 1549.52 208.887 1544.94 Q205.832 1540.33 205.832 1531.6 Q205.832 1522.85 208.887 1518.27 Q211.966 1513.66 217.776 1513.66 Z" fill="#000000" fill-rule="nonzero" fill-opacity="1" /><path clip-path="url(#clip090)" d="M237.938 1542.97 L242.822 1542.97 L242.822 1548.85 L237.938 1548.85 L237.938 1542.97 Z" fill="#000000" fill-rule="nonzero" fill-opacity="1" /><path clip-path="url(#clip090)" d="M263.007 1517.37 Q259.396 1517.37 257.568 1520.93 Q255.762 1524.47 255.762 1531.6 Q255.762 1538.71 257.568 1542.27 Q259.396 1545.82 263.007 1545.82 Q266.642 1545.82 268.447 1542.27 Q270.276 1538.71 270.276 1531.6 Q270.276 1524.47 268.447 1520.93 Q266.642 1517.37 263.007 1517.37 M263.007 1513.66 Q268.818 1513.66 271.873 1518.27 Q274.952 1522.85 274.952 1531.6 Q274.952 1540.33 271.873 1544.94 Q268.818 1549.52 263.007 1549.52 Q257.197 1549.52 254.119 1544.94 Q251.063 1540.33 251.063 1531.6 Q251.063 1522.85 254.119 1518.27 Q257.197 1513.66 263.007 1513.66 Z" fill="#000000" fill-rule="nonzero" fill-opacity="1" /><path clip-path="url(#clip090)" d="M724.838 1544.91 L741.157 1544.91 L741.157 1548.85 L719.213 1548.85 L719.213 1544.91 Q721.875 1542.16 726.458 1537.53 Q731.065 1532.88 732.245 1531.53 Q734.491 1529.01 735.37 1527.27 Q736.273 1525.51 736.273 1523.82 Q736.273 1521.07 734.328 1519.33 Q732.407 1517.6 729.305 1517.6 Q727.106 1517.6 724.653 1518.36 Q722.222 1519.13 719.444 1520.68 L719.444 1515.95 Q722.268 1514.82 724.722 1514.24 Q727.176 1513.66 729.213 1513.66 Q734.583 1513.66 737.778 1516.35 Q740.972 1519.03 740.972 1523.52 Q740.972 1525.65 740.162 1527.57 Q739.375 1529.47 737.268 1532.07 Q736.69 1532.74 733.588 1535.95 Q730.486 1539.15 724.838 1544.91 Z" fill="#000000" fill-rule="nonzero" fill-opacity="1" /><path clip-path="url(#clip090)" d="M750.972 1542.97 L755.856 1542.97 L755.856 1548.85 L750.972 1548.85 L750.972 1542.97 Z" fill="#000000" fill-rule="nonzero" fill-opacity="1" /><path clip-path="url(#clip090)" d="M766.088 1514.29 L784.444 1514.29 L784.444 1518.22 L770.37 1518.22 L770.37 1526.7 Q771.388 1526.35 772.407 1526.19 Q773.426 1526 774.444 1526 Q780.231 1526 783.611 1529.17 Q786.99 1532.34 786.99 1537.76 Q786.99 1543.34 783.518 1546.44 Q780.046 1549.52 773.726 1549.52 Q771.551 1549.52 769.282 1549.15 Q767.037 1548.78 764.629 1548.04 L764.629 1543.34 Q766.713 1544.47 768.935 1545.03 Q771.157 1545.58 773.634 1545.58 Q777.638 1545.58 779.976 1543.48 Q782.314 1541.37 782.314 1537.76 Q782.314 1534.15 779.976 1532.04 Q777.638 1529.94 773.634 1529.94 Q771.759 1529.94 769.884 1530.35 Q768.032 1530.77 766.088 1531.65 L766.088 1514.29 Z" fill="#000000" fill-rule="nonzero" fill-opacity="1" /><path clip-path="url(#clip090)" d="M1232.98 1514.29 L1251.33 1514.29 L1251.33 1518.22 L1237.26 1518.22 L1237.26 1526.7 Q1238.28 1526.35 1239.3 1526.19 Q1240.31 1526 1241.33 1526 Q1247.12 1526 1250.5 1529.17 Q1253.88 1532.34 1253.88 1537.76 Q1253.88 1543.34 1250.41 1546.44 Q1246.93 1549.52 1240.61 1549.52 Q1238.44 1549.52 1236.17 1549.15 Q1233.92 1548.78 1231.52 1548.04 L1231.52 1543.34 Q1233.6 1544.47 1235.82 1545.03 Q1238.05 1545.58 1240.52 1545.58 Q1244.53 1545.58 1246.86 1543.48 Q1249.2 1541.37 1249.2 1537.76 Q1249.2 1534.15 1246.86 1532.04 Q1244.53 1529.94 1240.52 1529.94 Q1238.65 1529.94 1236.77 1530.35 Q1234.92 1530.77 1232.98 1531.65 L1232.98 1514.29 Z" fill="#000000" fill-rule="nonzero" fill-opacity="1" /><path clip-path="url(#clip090)" d="M1263.09 1542.97 L1267.98 1542.97 L1267.98 1548.85 L1263.09 1548.85 L1263.09 1542.97 Z" fill="#000000" fill-rule="nonzero" fill-opacity="1" /><path clip-path="url(#clip090)" d="M1288.16 1517.37 Q1284.55 1517.37 1282.72 1520.93 Q1280.92 1524.47 1280.92 1531.6 Q1280.92 1538.71 1282.72 1542.27 Q1284.55 1545.82 1288.16 1545.82 Q1291.79 1545.82 1293.6 1542.27 Q1295.43 1538.71 1295.43 1531.6 Q1295.43 1524.47 1293.6 1520.93 Q1291.79 1517.37 1288.16 1517.37 M1288.16 1513.66 Q1293.97 1513.66 1297.03 1518.27 Q1300.11 1522.85 1300.11 1531.6 Q1300.11 1540.33 1297.03 1544.94 Q1293.97 1549.52 1288.16 1549.52 Q1282.35 1549.52 1279.27 1544.94 Q1276.22 1540.33 1276.22 1531.6 Q1276.22 1522.85 1279.27 1518.27 Q1282.35 1513.66 1288.16 1513.66 Z" fill="#000000" fill-rule="nonzero" fill-opacity="1" /><path clip-path="url(#clip090)" d="M1744.84 1514.29 L1767.06 1514.29 L1767.06 1516.28 L1754.52 1548.85 L1749.63 1548.85 L1761.44 1518.22 L1744.84 1518.22 L1744.84 1514.29 Z" fill="#000000" fill-rule="nonzero" fill-opacity="1" /><path clip-path="url(#clip090)" d="M1776.18 1542.97 L1781.07 1542.97 L1781.07 1548.85 L1776.18 1548.85 L1776.18 1542.97 Z" fill="#000000" fill-rule="nonzero" fill-opacity="1" /><path clip-path="url(#clip090)" d="M1791.3 1514.29 L1809.66 1514.29 L1809.66 1518.22 L1795.58 1518.22 L1795.58 1526.7 Q1796.6 1526.35 1797.62 1526.19 Q1798.64 1526 1799.66 1526 Q1805.44 1526 1808.82 1529.17 Q1812.2 1532.34 1812.2 1537.76 Q1812.2 1543.34 1808.73 1546.44 Q1805.26 1549.52 1798.94 1549.52 Q1796.76 1549.52 1794.49 1549.15 Q1792.25 1548.78 1789.84 1548.04 L1789.84 1543.34 Q1791.92 1544.47 1794.15 1545.03 Q1796.37 1545.58 1798.84 1545.58 Q1802.85 1545.58 1805.19 1543.48 Q1807.53 1541.37 1807.53 1537.76 Q1807.53 1534.15 1805.19 1532.04 Q1802.85 1529.94 1798.84 1529.94 Q1796.97 1529.94 1795.09 1530.35 Q1793.24 1530.77 1791.3 1531.65 L1791.3 1514.29 Z" fill="#000000" fill-rule="nonzero" fill-opacity="1" /><path clip-path="url(#clip090)" d="M2243.3 1544.91 L2250.94 1544.91 L2250.94 1518.55 L2242.63 1520.21 L2242.63 1515.95 L2250.9 1514.29 L2255.57 1514.29 L2255.57 1544.91 L2263.21 1544.91 L2263.21 1548.85 L2243.3 1548.85 L2243.3 1544.91 Z" fill="#000000" fill-rule="nonzero" fill-opacity="1" /><path clip-path="url(#clip090)" d="M2282.65 1517.37 Q2279.04 1517.37 2277.21 1520.93 Q2275.41 1524.47 2275.41 1531.6 Q2275.41 1538.71 2277.21 1542.27 Q2279.04 1545.82 2282.65 1545.82 Q2286.29 1545.82 2288.09 1542.27 Q2289.92 1538.71 2289.92 1531.6 Q2289.92 1524.47 2288.09 1520.93 Q2286.29 1517.37 2282.65 1517.37 M2282.65 1513.66 Q2288.46 1513.66 2291.52 1518.27 Q2294.6 1522.85 2294.6 1531.6 Q2294.6 1540.33 2291.52 1544.94 Q2288.46 1549.52 2282.65 1549.52 Q2276.84 1549.52 2273.77 1544.94 Q2270.71 1540.33 2270.71 1531.6 Q2270.71 1522.85 2273.77 1518.27 Q2276.84 1513.66 2282.65 1513.66 Z" fill="#000000" fill-rule="nonzero" fill-opacity="1" /><path clip-path="url(#clip090)" d="M2302.82 1542.97 L2307.7 1542.97 L2307.7 1548.85 L2302.82 1548.85 L2302.82 1542.97 Z" fill="#000000" fill-rule="nonzero" fill-opacity="1" /><path clip-path="url(#clip090)" d="M2327.89 1517.37 Q2324.27 1517.37 2322.45 1520.93 Q2320.64 1524.47 2320.64 1531.6 Q2320.64 1538.71 2322.45 1542.27 Q2324.27 1545.82 2327.89 1545.82 Q2331.52 1545.82 2333.33 1542.27 Q2335.15 1538.71 2335.15 1531.6 Q2335.15 1524.47 2333.33 1520.93 Q2331.52 1517.37 2327.89 1517.37 M2327.89 1513.66 Q2333.7 1513.66 2336.75 1518.27 Q2339.83 1522.85 2339.83 1531.6 Q2339.83 1540.33 2336.75 1544.94 Q2333.7 1549.52 2327.89 1549.52 Q2322.08 1549.52 2319 1544.94 Q2315.94 1540.33 2315.94 1531.6 Q2315.94 1522.85 2319 1518.27 Q2322.08 1513.66 2327.89 1513.66 Z" fill="#000000" fill-rule="nonzero" fill-opacity="1" /><polyline clip-path="url(#clip090)" style="stroke:#000000; stroke-linecap:round; stroke-linejoin:round; stroke-width:4; stroke-opacity:1; fill:none" points="178.867,1486.45 178.867,47.2441 "/>
<polyline clip-path="url(#clip090)" style="stroke:#000000; stroke-linecap:round; stroke-linejoin:round; stroke-width:4; stroke-opacity:1; fill:none" points="178.867,1205.23 197.764,1205.23 "/>
<polyline clip-path="url(#clip090)" style="stroke:#000000; stroke-linecap:round; stroke-linejoin:round; stroke-width:4; stroke-opacity:1; fill:none" points="178.867,833.262 197.764,833.262 "/>
<polyline clip-path="url(#clip090)" style="stroke:#000000; stroke-linecap:round; stroke-linejoin:round; stroke-width:4; stroke-opacity:1; fill:none" points="178.867,461.296 197.764,461.296 "/>
<polyline clip-path="url(#clip090)" style="stroke:#000000; stroke-linecap:round; stroke-linejoin:round; stroke-width:4; stroke-opacity:1; fill:none" points="178.867,89.331 197.764,89.331 "/>
<path clip-path="url(#clip090)" d="M50.9921 1205.68 L80.6679 1205.68 L80.6679 1209.61 L50.9921 1209.61 L50.9921 1205.68 Z" fill="#000000" fill-rule="nonzero" fill-opacity="1" /><path clip-path="url(#clip090)" d="M91.5706 1218.57 L99.2095 1218.57 L99.2095 1192.21 L90.8993 1193.87 L90.8993 1189.61 L99.1632 1187.95 L103.839 1187.95 L103.839 1218.57 L111.478 1218.57 L111.478 1222.51 L91.5706 1222.51 L91.5706 1218.57 Z" fill="#000000" fill-rule="nonzero" fill-opacity="1" /><path clip-path="url(#clip090)" d="M130.922 1191.03 Q127.311 1191.03 125.482 1194.59 Q123.677 1198.13 123.677 1205.26 Q123.677 1212.37 125.482 1215.93 Q127.311 1219.47 130.922 1219.47 Q134.556 1219.47 136.362 1215.93 Q138.191 1212.37 138.191 1205.26 Q138.191 1198.13 136.362 1194.59 Q134.556 1191.03 130.922 1191.03 M130.922 1187.32 Q136.732 1187.32 139.788 1191.93 Q142.867 1196.51 142.867 1205.26 Q142.867 1213.99 139.788 1218.59 Q136.732 1223.18 130.922 1223.18 Q125.112 1223.18 122.033 1218.59 Q118.978 1213.99 118.978 1205.26 Q118.978 1196.51 122.033 1191.93 Q125.112 1187.32 130.922 1187.32 Z" fill="#000000" fill-rule="nonzero" fill-opacity="1" /><path clip-path="url(#clip090)" d="M130.922 819.06 Q127.311 819.06 125.482 822.625 Q123.677 826.167 123.677 833.296 Q123.677 840.403 125.482 843.968 Q127.311 847.509 130.922 847.509 Q134.556 847.509 136.362 843.968 Q138.191 840.403 138.191 833.296 Q138.191 826.167 136.362 822.625 Q134.556 819.06 130.922 819.06 M130.922 815.357 Q136.732 815.357 139.788 819.963 Q142.867 824.546 142.867 833.296 Q142.867 842.023 139.788 846.63 Q136.732 851.213 130.922 851.213 Q125.112 851.213 122.033 846.63 Q118.978 842.023 118.978 833.296 Q118.978 824.546 122.033 819.963 Q125.112 815.357 130.922 815.357 Z" fill="#000000" fill-rule="nonzero" fill-opacity="1" /><path clip-path="url(#clip090)" d="M91.5706 474.641 L99.2095 474.641 L99.2095 448.276 L90.8993 449.942 L90.8993 445.683 L99.1632 444.016 L103.839 444.016 L103.839 474.641 L111.478 474.641 L111.478 478.576 L91.5706 478.576 L91.5706 474.641 Z" fill="#000000" fill-rule="nonzero" fill-opacity="1" /><path clip-path="url(#clip090)" d="M130.922 447.095 Q127.311 447.095 125.482 450.66 Q123.677 454.201 123.677 461.331 Q123.677 468.437 125.482 472.002 Q127.311 475.544 130.922 475.544 Q134.556 475.544 136.362 472.002 Q138.191 468.437 138.191 461.331 Q138.191 454.201 136.362 450.66 Q134.556 447.095 130.922 447.095 M130.922 443.391 Q136.732 443.391 139.788 447.998 Q142.867 452.581 142.867 461.331 Q142.867 470.058 139.788 474.664 Q136.732 479.248 130.922 479.248 Q125.112 479.248 122.033 474.664 Q118.978 470.058 118.978 461.331 Q118.978 452.581 122.033 447.998 Q125.112 443.391 130.922 443.391 Z" fill="#000000" fill-rule="nonzero" fill-opacity="1" /><path clip-path="url(#clip090)" d="M94.7882 102.676 L111.108 102.676 L111.108 106.611 L89.1632 106.611 L89.1632 102.676 Q91.8252 99.9212 96.4085 95.2916 Q101.015 90.6389 102.196 89.2963 Q104.441 86.7731 105.321 85.037 Q106.223 83.2778 106.223 81.588 Q106.223 78.8334 104.279 77.0973 Q102.358 75.3612 99.2558 75.3612 Q97.0567 75.3612 94.603 76.1251 Q92.1725 76.8889 89.3947 78.4399 L89.3947 73.7177 Q92.2188 72.5834 94.6724 72.0047 Q97.1261 71.426 99.1632 71.426 Q104.534 71.426 107.728 74.1112 Q110.922 76.7964 110.922 81.2871 Q110.922 83.4167 110.112 85.338 Q109.325 87.2361 107.219 89.8287 Q106.64 90.5 103.538 93.7176 Q100.436 96.912 94.7882 102.676 Z" fill="#000000" fill-rule="nonzero" fill-opacity="1" /><path clip-path="url(#clip090)" d="M130.922 75.1297 Q127.311 75.1297 125.482 78.6945 Q123.677 82.2361 123.677 89.3657 Q123.677 96.4722 125.482 100.037 Q127.311 103.579 130.922 103.579 Q134.556 103.579 136.362 100.037 Q138.191 96.4722 138.191 89.3657 Q138.191 82.2361 136.362 78.6945 Q134.556 75.1297 130.922 75.1297 M130.922 71.426 Q136.732 71.426 139.788 76.0325 Q142.867 80.6158 142.867 89.3657 Q142.867 98.0925 139.788 102.699 Q136.732 107.282 130.922 107.282 Q125.112 107.282 122.033 102.699 Q118.978 98.0925 118.978 89.3657 Q118.978 80.6158 122.033 76.0325 Q125.112 71.426 130.922 71.426 Z" fill="#000000" fill-rule="nonzero" fill-opacity="1" /><circle clip-path="url(#clip091)" cx="240.392" cy="846.777" r="14.4" fill="#009af9" fill-rule="evenodd" fill-opacity="0.4" stroke="#000000" stroke-opacity="0.4" stroke-width="3.2"/>
<circle clip-path="url(#clip091)" cx="260.9" cy="816.459" r="14.4" fill="#009af9" fill-rule="evenodd" fill-opacity="0.4" stroke="#000000" stroke-opacity="0.4" stroke-width="3.2"/>
<circle clip-path="url(#clip091)" cx="281.409" cy="830.099" r="14.4" fill="#009af9" fill-rule="evenodd" fill-opacity="0.4" stroke="#000000" stroke-opacity="0.4" stroke-width="3.2"/>
<circle clip-path="url(#clip091)" cx="301.917" cy="822.521" r="14.4" fill="#009af9" fill-rule="evenodd" fill-opacity="0.4" stroke="#000000" stroke-opacity="0.4" stroke-width="3.2"/>
<circle clip-path="url(#clip091)" cx="322.425" cy="773.141" r="14.4" fill="#009af9" fill-rule="evenodd" fill-opacity="0.4" stroke="#000000" stroke-opacity="0.4" stroke-width="3.2"/>
<circle clip-path="url(#clip091)" cx="342.934" cy="778.332" r="14.4" fill="#009af9" fill-rule="evenodd" fill-opacity="0.4" stroke="#000000" stroke-opacity="0.4" stroke-width="3.2"/>
<circle clip-path="url(#clip091)" cx="363.442" cy="820.598" r="14.4" fill="#009af9" fill-rule="evenodd" fill-opacity="0.4" stroke="#000000" stroke-opacity="0.4" stroke-width="3.2"/>
<circle clip-path="url(#clip091)" cx="383.951" cy="835.839" r="14.4" fill="#009af9" fill-rule="evenodd" fill-opacity="0.4" stroke="#000000" stroke-opacity="0.4" stroke-width="3.2"/>
<circle clip-path="url(#clip091)" cx="404.459" cy="852.393" r="14.4" fill="#009af9" fill-rule="evenodd" fill-opacity="0.4" stroke="#000000" stroke-opacity="0.4" stroke-width="3.2"/>
<circle clip-path="url(#clip091)" cx="424.967" cy="764.679" r="14.4" fill="#009af9" fill-rule="evenodd" fill-opacity="0.4" stroke="#000000" stroke-opacity="0.4" stroke-width="3.2"/>
<circle clip-path="url(#clip091)" cx="445.476" cy="789.568" r="14.4" fill="#009af9" fill-rule="evenodd" fill-opacity="0.4" stroke="#000000" stroke-opacity="0.4" stroke-width="3.2"/>
<circle clip-path="url(#clip091)" cx="465.984" cy="720.173" r="14.4" fill="#009af9" fill-rule="evenodd" fill-opacity="0.4" stroke="#000000" stroke-opacity="0.4" stroke-width="3.2"/>
<circle clip-path="url(#clip091)" cx="486.492" cy="727.851" r="14.4" fill="#009af9" fill-rule="evenodd" fill-opacity="0.4" stroke="#000000" stroke-opacity="0.4" stroke-width="3.2"/>
<circle clip-path="url(#clip091)" cx="507.001" cy="751.26" r="14.4" fill="#009af9" fill-rule="evenodd" fill-opacity="0.4" stroke="#000000" stroke-opacity="0.4" stroke-width="3.2"/>
<circle clip-path="url(#clip091)" cx="527.509" cy="709.876" r="14.4" fill="#009af9" fill-rule="evenodd" fill-opacity="0.4" stroke="#000000" stroke-opacity="0.4" stroke-width="3.2"/>
<circle clip-path="url(#clip091)" cx="548.018" cy="667.84" r="14.4" fill="#009af9" fill-rule="evenodd" fill-opacity="0.4" stroke="#000000" stroke-opacity="0.4" stroke-width="3.2"/>
<circle clip-path="url(#clip091)" cx="568.526" cy="717.695" r="14.4" fill="#009af9" fill-rule="evenodd" fill-opacity="0.4" stroke="#000000" stroke-opacity="0.4" stroke-width="3.2"/>
<circle clip-path="url(#clip091)" cx="589.034" cy="754.129" r="14.4" fill="#009af9" fill-rule="evenodd" fill-opacity="0.4" stroke="#000000" stroke-opacity="0.4" stroke-width="3.2"/>
<circle clip-path="url(#clip091)" cx="609.543" cy="650.589" r="14.4" fill="#009af9" fill-rule="evenodd" fill-opacity="0.4" stroke="#000000" stroke-opacity="0.4" stroke-width="3.2"/>
<circle clip-path="url(#clip091)" cx="630.051" cy="695.507" r="14.4" fill="#009af9" fill-rule="evenodd" fill-opacity="0.4" stroke="#000000" stroke-opacity="0.4" stroke-width="3.2"/>
<circle clip-path="url(#clip091)" cx="650.56" cy="735.911" r="14.4" fill="#009af9" fill-rule="evenodd" fill-opacity="0.4" stroke="#000000" stroke-opacity="0.4" stroke-width="3.2"/>
<circle clip-path="url(#clip091)" cx="671.068" cy="731.434" r="14.4" fill="#009af9" fill-rule="evenodd" fill-opacity="0.4" stroke="#000000" stroke-opacity="0.4" stroke-width="3.2"/>
<circle clip-path="url(#clip091)" cx="691.576" cy="621.205" r="14.4" fill="#009af9" fill-rule="evenodd" fill-opacity="0.4" stroke="#000000" stroke-opacity="0.4" stroke-width="3.2"/>
<circle clip-path="url(#clip091)" cx="712.085" cy="577.86" r="14.4" fill="#009af9" fill-rule="evenodd" fill-opacity="0.4" stroke="#000000" stroke-opacity="0.4" stroke-width="3.2"/>
<circle clip-path="url(#clip091)" cx="732.593" cy="598.463" r="14.4" fill="#009af9" fill-rule="evenodd" fill-opacity="0.4" stroke="#000000" stroke-opacity="0.4" stroke-width="3.2"/>
<circle clip-path="url(#clip091)" cx="753.102" cy="623.144" r="14.4" fill="#009af9" fill-rule="evenodd" fill-opacity="0.4" stroke="#000000" stroke-opacity="0.4" stroke-width="3.2"/>
<circle clip-path="url(#clip091)" cx="773.61" cy="606.365" r="14.4" fill="#009af9" fill-rule="evenodd" fill-opacity="0.4" stroke="#000000" stroke-opacity="0.4" stroke-width="3.2"/>
<circle clip-path="url(#clip091)" cx="794.118" cy="621.831" r="14.4" fill="#009af9" fill-rule="evenodd" fill-opacity="0.4" stroke="#000000" stroke-opacity="0.4" stroke-width="3.2"/>
<circle clip-path="url(#clip091)" cx="814.627" cy="583.911" r="14.4" fill="#009af9" fill-rule="evenodd" fill-opacity="0.4" stroke="#000000" stroke-opacity="0.4" stroke-width="3.2"/>
<circle clip-path="url(#clip091)" cx="835.135" cy="592.828" r="14.4" fill="#009af9" fill-rule="evenodd" fill-opacity="0.4" stroke="#000000" stroke-opacity="0.4" stroke-width="3.2"/>
<circle clip-path="url(#clip091)" cx="855.643" cy="603.712" r="14.4" fill="#009af9" fill-rule="evenodd" fill-opacity="0.4" stroke="#000000" stroke-opacity="0.4" stroke-width="3.2"/>
<circle clip-path="url(#clip091)" cx="876.152" cy="560.986" r="14.4" fill="#009af9" fill-rule="evenodd" fill-opacity="0.4" stroke="#000000" stroke-opacity="0.4" stroke-width="3.2"/>
<circle clip-path="url(#clip091)" cx="896.66" cy="523.758" r="14.4" fill="#009af9" fill-rule="evenodd" fill-opacity="0.4" stroke="#000000" stroke-opacity="0.4" stroke-width="3.2"/>
<circle clip-path="url(#clip091)" cx="917.169" cy="557.983" r="14.4" fill="#009af9" fill-rule="evenodd" fill-opacity="0.4" stroke="#000000" stroke-opacity="0.4" stroke-width="3.2"/>
<circle clip-path="url(#clip091)" cx="937.677" cy="594.669" r="14.4" fill="#009af9" fill-rule="evenodd" fill-opacity="0.4" stroke="#000000" stroke-opacity="0.4" stroke-width="3.2"/>
<circle clip-path="url(#clip091)" cx="958.185" cy="589.242" r="14.4" fill="#009af9" fill-rule="evenodd" fill-opacity="0.4" stroke="#000000" stroke-opacity="0.4" stroke-width="3.2"/>
<circle clip-path="url(#clip091)" cx="978.694" cy="542.017" r="14.4" fill="#009af9" fill-rule="evenodd" fill-opacity="0.4" stroke="#000000" stroke-opacity="0.4" stroke-width="3.2"/>
<circle clip-path="url(#clip091)" cx="999.202" cy="560.597" r="14.4" fill="#009af9" fill-rule="evenodd" fill-opacity="0.4" stroke="#000000" stroke-opacity="0.4" stroke-width="3.2"/>
<circle clip-path="url(#clip091)" cx="1019.71" cy="579.541" r="14.4" fill="#009af9" fill-rule="evenodd" fill-opacity="0.4" stroke="#000000" stroke-opacity="0.4" stroke-width="3.2"/>
<circle clip-path="url(#clip091)" cx="1040.22" cy="575.815" r="14.4" fill="#009af9" fill-rule="evenodd" fill-opacity="0.4" stroke="#000000" stroke-opacity="0.4" stroke-width="3.2"/>
<circle clip-path="url(#clip091)" cx="1060.73" cy="526.611" r="14.4" fill="#009af9" fill-rule="evenodd" fill-opacity="0.4" stroke="#000000" stroke-opacity="0.4" stroke-width="3.2"/>
<circle clip-path="url(#clip091)" cx="1081.24" cy="516.259" r="14.4" fill="#009af9" fill-rule="evenodd" fill-opacity="0.4" stroke="#000000" stroke-opacity="0.4" stroke-width="3.2"/>
<circle clip-path="url(#clip091)" cx="1101.74" cy="566.529" r="14.4" fill="#009af9" fill-rule="evenodd" fill-opacity="0.4" stroke="#000000" stroke-opacity="0.4" stroke-width="3.2"/>
<circle clip-path="url(#clip091)" cx="1122.25" cy="519.518" r="14.4" fill="#009af9" fill-rule="evenodd" fill-opacity="0.4" stroke="#000000" stroke-opacity="0.4" stroke-width="3.2"/>
<circle clip-path="url(#clip091)" cx="1142.76" cy="512.291" r="14.4" fill="#009af9" fill-rule="evenodd" fill-opacity="0.4" stroke="#000000" stroke-opacity="0.4" stroke-width="3.2"/>
<circle clip-path="url(#clip091)" cx="1163.27" cy="528.812" r="14.4" fill="#009af9" fill-rule="evenodd" fill-opacity="0.4" stroke="#000000" stroke-opacity="0.4" stroke-width="3.2"/>
<circle clip-path="url(#clip091)" cx="1183.78" cy="524.551" r="14.4" fill="#009af9" fill-rule="evenodd" fill-opacity="0.4" stroke="#000000" stroke-opacity="0.4" stroke-width="3.2"/>
<circle clip-path="url(#clip091)" cx="1204.29" cy="490.793" r="14.4" fill="#009af9" fill-rule="evenodd" fill-opacity="0.4" stroke="#000000" stroke-opacity="0.4" stroke-width="3.2"/>
<circle clip-path="url(#clip091)" cx="1224.79" cy="513.311" r="14.4" fill="#009af9" fill-rule="evenodd" fill-opacity="0.4" stroke="#000000" stroke-opacity="0.4" stroke-width="3.2"/>
<circle clip-path="url(#clip091)" cx="1245.3" cy="526.058" r="14.4" fill="#009af9" fill-rule="evenodd" fill-opacity="0.4" stroke="#000000" stroke-opacity="0.4" stroke-width="3.2"/>
<circle clip-path="url(#clip091)" cx="1265.81" cy="484.347" r="14.4" fill="#009af9" fill-rule="evenodd" fill-opacity="0.4" stroke="#000000" stroke-opacity="0.4" stroke-width="3.2"/>
<circle clip-path="url(#clip091)" cx="1286.32" cy="430.211" r="14.4" fill="#009af9" fill-rule="evenodd" fill-opacity="0.4" stroke="#000000" stroke-opacity="0.4" stroke-width="3.2"/>
<circle clip-path="url(#clip091)" cx="1306.83" cy="464.221" r="14.4" fill="#009af9" fill-rule="evenodd" fill-opacity="0.4" stroke="#000000" stroke-opacity="0.4" stroke-width="3.2"/>
<circle clip-path="url(#clip091)" cx="1327.34" cy="401.979" r="14.4" fill="#009af9" fill-rule="evenodd" fill-opacity="0.4" stroke="#000000" stroke-opacity="0.4" stroke-width="3.2"/>
<circle clip-path="url(#clip091)" cx="1347.84" cy="419.252" r="14.4" fill="#009af9" fill-rule="evenodd" fill-opacity="0.4" stroke="#000000" stroke-opacity="0.4" stroke-width="3.2"/>
<circle clip-path="url(#clip091)" cx="1368.35" cy="410.058" r="14.4" fill="#009af9" fill-rule="evenodd" fill-opacity="0.4" stroke="#000000" stroke-opacity="0.4" stroke-width="3.2"/>
<circle clip-path="url(#clip091)" cx="1388.86" cy="481.129" r="14.4" fill="#009af9" fill-rule="evenodd" fill-opacity="0.4" stroke="#000000" stroke-opacity="0.4" stroke-width="3.2"/>
<circle clip-path="url(#clip091)" cx="1409.37" cy="442.972" r="14.4" fill="#009af9" fill-rule="evenodd" fill-opacity="0.4" stroke="#000000" stroke-opacity="0.4" stroke-width="3.2"/>
<circle clip-path="url(#clip091)" cx="1429.88" cy="315.452" r="14.4" fill="#009af9" fill-rule="evenodd" fill-opacity="0.4" stroke="#000000" stroke-opacity="0.4" stroke-width="3.2"/>
<circle clip-path="url(#clip091)" cx="1450.39" cy="393.452" r="14.4" fill="#009af9" fill-rule="evenodd" fill-opacity="0.4" stroke="#000000" stroke-opacity="0.4" stroke-width="3.2"/>
<circle clip-path="url(#clip091)" cx="1470.9" cy="341.326" r="14.4" fill="#009af9" fill-rule="evenodd" fill-opacity="0.4" stroke="#000000" stroke-opacity="0.4" stroke-width="3.2"/>
<circle clip-path="url(#clip091)" cx="1491.4" cy="330.946" r="14.4" fill="#009af9" fill-rule="evenodd" fill-opacity="0.4" stroke="#000000" stroke-opacity="0.4" stroke-width="3.2"/>
<circle clip-path="url(#clip091)" cx="1511.91" cy="388.392" r="14.4" fill="#009af9" fill-rule="evenodd" fill-opacity="0.4" stroke="#000000" stroke-opacity="0.4" stroke-width="3.2"/>
<circle clip-path="url(#clip091)" cx="1532.42" cy="430.793" r="14.4" fill="#009af9" fill-rule="evenodd" fill-opacity="0.4" stroke="#000000" stroke-opacity="0.4" stroke-width="3.2"/>
<circle clip-path="url(#clip091)" cx="1552.93" cy="321.499" r="14.4" fill="#009af9" fill-rule="evenodd" fill-opacity="0.4" stroke="#000000" stroke-opacity="0.4" stroke-width="3.2"/>
<circle clip-path="url(#clip091)" cx="1573.44" cy="393.348" r="14.4" fill="#009af9" fill-rule="evenodd" fill-opacity="0.4" stroke="#000000" stroke-opacity="0.4" stroke-width="3.2"/>
<circle clip-path="url(#clip091)" cx="1593.95" cy="322.124" r="14.4" fill="#009af9" fill-rule="evenodd" fill-opacity="0.4" stroke="#000000" stroke-opacity="0.4" stroke-width="3.2"/>
<circle clip-path="url(#clip091)" cx="1614.45" cy="413.875" r="14.4" fill="#009af9" fill-rule="evenodd" fill-opacity="0.4" stroke="#000000" stroke-opacity="0.4" stroke-width="3.2"/>
<circle clip-path="url(#clip091)" cx="1634.96" cy="345.653" r="14.4" fill="#009af9" fill-rule="evenodd" fill-opacity="0.4" stroke="#000000" stroke-opacity="0.4" stroke-width="3.2"/>
<circle clip-path="url(#clip091)" cx="1655.47" cy="340.197" r="14.4" fill="#009af9" fill-rule="evenodd" fill-opacity="0.4" stroke="#000000" stroke-opacity="0.4" stroke-width="3.2"/>
<circle clip-path="url(#clip091)" cx="1675.98" cy="351.605" r="14.4" fill="#009af9" fill-rule="evenodd" fill-opacity="0.4" stroke="#000000" stroke-opacity="0.4" stroke-width="3.2"/>
<circle clip-path="url(#clip091)" cx="1696.49" cy="331.701" r="14.4" fill="#009af9" fill-rule="evenodd" fill-opacity="0.4" stroke="#000000" stroke-opacity="0.4" stroke-width="3.2"/>
<circle clip-path="url(#clip091)" cx="1717" cy="263.039" r="14.4" fill="#009af9" fill-rule="evenodd" fill-opacity="0.4" stroke="#000000" stroke-opacity="0.4" stroke-width="3.2"/>
<circle clip-path="url(#clip091)" cx="1737.5" cy="291.384" r="14.4" fill="#009af9" fill-rule="evenodd" fill-opacity="0.4" stroke="#000000" stroke-opacity="0.4" stroke-width="3.2"/>
<circle clip-path="url(#clip091)" cx="1758.01" cy="315.917" r="14.4" fill="#009af9" fill-rule="evenodd" fill-opacity="0.4" stroke="#000000" stroke-opacity="0.4" stroke-width="3.2"/>
<circle clip-path="url(#clip091)" cx="1778.52" cy="241.287" r="14.4" fill="#009af9" fill-rule="evenodd" fill-opacity="0.4" stroke="#000000" stroke-opacity="0.4" stroke-width="3.2"/>
<circle clip-path="url(#clip091)" cx="1799.03" cy="327.226" r="14.4" fill="#009af9" fill-rule="evenodd" fill-opacity="0.4" stroke="#000000" stroke-opacity="0.4" stroke-width="3.2"/>
<circle clip-path="url(#clip091)" cx="1819.54" cy="277.324" r="14.4" fill="#009af9" fill-rule="evenodd" fill-opacity="0.4" stroke="#000000" stroke-opacity="0.4" stroke-width="3.2"/>
<circle clip-path="url(#clip091)" cx="1840.05" cy="251.324" r="14.4" fill="#009af9" fill-rule="evenodd" fill-opacity="0.4" stroke="#000000" stroke-opacity="0.4" stroke-width="3.2"/>
<circle clip-path="url(#clip091)" cx="1860.55" cy="275.027" r="14.4" fill="#009af9" fill-rule="evenodd" fill-opacity="0.4" stroke="#000000" stroke-opacity="0.4" stroke-width="3.2"/>
<circle clip-path="url(#clip091)" cx="1881.06" cy="224.234" r="14.4" fill="#009af9" fill-rule="evenodd" fill-opacity="0.4" stroke="#000000" stroke-opacity="0.4" stroke-width="3.2"/>
<circle clip-path="url(#clip091)" cx="1901.57" cy="282.926" r="14.4" fill="#009af9" fill-rule="evenodd" fill-opacity="0.4" stroke="#000000" stroke-opacity="0.4" stroke-width="3.2"/>
<circle clip-path="url(#clip091)" cx="1922.08" cy="269.168" r="14.4" fill="#009af9" fill-rule="evenodd" fill-opacity="0.4" stroke="#000000" stroke-opacity="0.4" stroke-width="3.2"/>
<circle clip-path="url(#clip091)" cx="1942.59" cy="220.46" r="14.4" fill="#009af9" fill-rule="evenodd" fill-opacity="0.4" stroke="#000000" stroke-opacity="0.4" stroke-width="3.2"/>
<circle clip-path="url(#clip091)" cx="1963.1" cy="237.584" r="14.4" fill="#009af9" fill-rule="evenodd" fill-opacity="0.4" stroke="#000000" stroke-opacity="0.4" stroke-width="3.2"/>
<circle clip-path="url(#clip091)" cx="1983.6" cy="216.1" r="14.4" fill="#009af9" fill-rule="evenodd" fill-opacity="0.4" stroke="#000000" stroke-opacity="0.4" stroke-width="3.2"/>
<circle clip-path="url(#clip091)" cx="2004.11" cy="257.712" r="14.4" fill="#009af9" fill-rule="evenodd" fill-opacity="0.4" stroke="#000000" stroke-opacity="0.4" stroke-width="3.2"/>
<circle clip-path="url(#clip091)" cx="2024.62" cy="165.321" r="14.4" fill="#009af9" fill-rule="evenodd" fill-opacity="0.4" stroke="#000000" stroke-opacity="0.4" stroke-width="3.2"/>
<circle clip-path="url(#clip091)" cx="2045.13" cy="193.163" r="14.4" fill="#009af9" fill-rule="evenodd" fill-opacity="0.4" stroke="#000000" stroke-opacity="0.4" stroke-width="3.2"/>
<circle clip-path="url(#clip091)" cx="2065.64" cy="180.491" r="14.4" fill="#009af9" fill-rule="evenodd" fill-opacity="0.4" stroke="#000000" stroke-opacity="0.4" stroke-width="3.2"/>
<circle clip-path="url(#clip091)" cx="2086.15" cy="125.715" r="14.4" fill="#009af9" fill-rule="evenodd" fill-opacity="0.4" stroke="#000000" stroke-opacity="0.4" stroke-width="3.2"/>
<circle clip-path="url(#clip091)" cx="2106.66" cy="156.32" r="14.4" fill="#009af9" fill-rule="evenodd" fill-opacity="0.4" stroke="#000000" stroke-opacity="0.4" stroke-width="3.2"/>
<circle clip-path="url(#clip091)" cx="2127.16" cy="204.669" r="14.4" fill="#009af9" fill-rule="evenodd" fill-opacity="0.4" stroke="#000000" stroke-opacity="0.4" stroke-width="3.2"/>
<circle clip-path="url(#clip091)" cx="2147.67" cy="131.626" r="14.4" fill="#009af9" fill-rule="evenodd" fill-opacity="0.4" stroke="#000000" stroke-opacity="0.4" stroke-width="3.2"/>
<circle clip-path="url(#clip091)" cx="2168.18" cy="173.437" r="14.4" fill="#009af9" fill-rule="evenodd" fill-opacity="0.4" stroke="#000000" stroke-opacity="0.4" stroke-width="3.2"/>
<circle clip-path="url(#clip091)" cx="2188.69" cy="87.9763" r="14.4" fill="#009af9" fill-rule="evenodd" fill-opacity="0.4" stroke="#000000" stroke-opacity="0.4" stroke-width="3.2"/>
<circle clip-path="url(#clip091)" cx="2209.2" cy="126.774" r="14.4" fill="#009af9" fill-rule="evenodd" fill-opacity="0.4" stroke="#000000" stroke-opacity="0.4" stroke-width="3.2"/>
<circle clip-path="url(#clip091)" cx="2229.71" cy="123.208" r="14.4" fill="#009af9" fill-rule="evenodd" fill-opacity="0.4" stroke="#000000" stroke-opacity="0.4" stroke-width="3.2"/>
<circle clip-path="url(#clip091)" cx="2250.21" cy="105.715" r="14.4" fill="#009af9" fill-rule="evenodd" fill-opacity="0.4" stroke="#000000" stroke-opacity="0.4" stroke-width="3.2"/>
<circle clip-path="url(#clip091)" cx="2270.72" cy="92.8732" r="14.4" fill="#009af9" fill-rule="evenodd" fill-opacity="0.4" stroke="#000000" stroke-opacity="0.4" stroke-width="3.2"/>
<circle clip-path="url(#clip091)" cx="2291.23" cy="125.244" r="14.4" fill="#009af9" fill-rule="evenodd" fill-opacity="0.4" stroke="#000000" stroke-opacity="0.4" stroke-width="3.2"/>
<path clip-path="url(#clip091)" d="M240.392 867.382 L260.9 868.67 L281.409 869.997 L301.917 871.365 L322.425 872.774 L342.934 874.227 L363.442 875.723 L383.951 877.264 L404.459 878.852 L424.967 880.487 L445.476 882.171 L465.984 883.905 L486.492 885.691 L507.001 887.53 L527.509 889.423 L548.018 891.372 L568.526 893.544 L589.034 895.802 L609.543 898.118 L630.051 900.494 L650.56 902.931 L671.068 905.431 L691.576 907.995 L712.085 910.625 L732.593 913.323 L753.102 916.091 L773.61 918.93 L794.118 921.843 L814.627 924.831 L835.135 927.896 L855.643 930.881 L876.152 933.736 L896.66 936.662 L917.169 939.658 L937.677 942.728 L958.185 945.874 L978.694 949.096 L999.202 952.397 L1019.71 955.778 L1040.22 959.242 L1060.73 962.791 L1081.24 966.426 L1101.74 970.15 L1122.25 973.965 L1142.76 977.873 L1163.27 981.877 L1183.78 985.978 L1204.29 990.179 L1224.79 994.482 L1245.3 998.891 L1265.81 1003.41 L1286.32 1008.03 L1306.83 1012.77 L1327.34 1017.63 L1347.84 1022.6 L1368.35 1027.69 L1388.86 1032.91 L1409.37 1038.26 L1429.88 1043.73 L1450.39 1049.34 L1470.9 1055.08 L1491.4 1060.97 L1511.91 1067 L1532.42 1073.17 L1552.93 1079.5 L1573.44 1085.98 L1593.95 1092.61 L1614.45 1099.41 L1634.96 1106.37 L1655.47 1113.51 L1675.98 1120.81 L1696.49 1128.3 L1717 1135.96 L1737.5 1143.81 L1758.01 1151.86 L1778.52 1160.1 L1799.03 1168.53 L1819.54 1177.18 L1840.05 1186.03 L1860.55 1195.1 L1881.06 1204.39 L1901.57 1213.91 L1922.08 1223.65 L1942.59 1233.64 L1963.1 1243.86 L1983.6 1254.34 L2004.11 1265.07 L2024.62 1276.05 L2045.13 1287.31 L2065.64 1298.84 L2086.15 1310.65 L2106.66 1322.75 L2127.16 1335.13 L2147.67 1347.82 L2168.18 1360.82 L2188.69 1374.14 L2209.2 1387.78 L2229.71 1401.74 L2250.21 1416.05 L2270.72 1430.71 L2291.23 1445.72 L2291.23 173.838 L2270.72 188.906 L2250.21 203.619 L2229.71 217.984 L2209.2 232.01 L2188.69 245.705 L2168.18 259.077 L2147.67 272.134 L2127.16 284.882 L2106.66 297.329 L2086.15 309.483 L2065.64 321.35 L2045.13 332.937 L2024.62 344.251 L2004.11 355.298 L1983.6 366.084 L1963.1 376.616 L1942.59 386.9 L1922.08 396.941 L1901.57 406.745 L1881.06 416.318 L1860.55 425.666 L1840.05 434.793 L1819.54 443.705 L1799.03 452.407 L1778.52 460.903 L1758.01 469.2 L1737.5 477.301 L1717 485.211 L1696.49 492.934 L1675.98 500.476 L1655.47 507.84 L1634.96 515.031 L1614.45 522.052 L1593.95 528.908 L1573.44 535.602 L1552.93 542.139 L1532.42 548.522 L1511.91 554.754 L1491.4 560.84 L1470.9 566.783 L1450.39 572.585 L1429.88 578.252 L1409.37 583.785 L1388.86 589.187 L1368.35 594.463 L1347.84 599.615 L1327.34 604.645 L1306.83 609.557 L1286.32 614.354 L1265.81 619.038 L1245.3 623.612 L1224.79 628.078 L1204.29 632.439 L1183.78 636.698 L1163.27 640.857 L1142.76 644.919 L1122.25 648.884 L1101.74 652.757 L1081.24 656.539 L1060.73 660.232 L1040.22 663.839 L1019.71 667.361 L999.202 670.8 L978.694 674.159 L958.185 677.438 L937.677 680.641 L917.169 683.769 L896.66 686.824 L876.152 689.807 L855.643 692.72 L835.135 695.654 L814.627 698.583 L794.118 701.434 L773.61 704.209 L753.102 706.912 L732.593 709.542 L712.085 712.103 L691.576 714.597 L671.068 717.024 L650.56 719.386 L630.051 721.686 L609.543 723.925 L589.034 726.105 L568.526 728.226 L548.018 730.334 L527.509 732.626 L507.001 734.863 L486.492 737.045 L465.984 739.174 L445.476 741.252 L424.967 743.279 L404.459 745.258 L383.951 747.189 L363.442 749.073 L342.934 750.913 L322.425 752.708 L301.917 754.461 L281.409 756.172 L260.9 757.843 L240.392 759.474  Z" fill="#ff0000" fill-rule="evenodd" fill-opacity="0.2"/>
<polyline clip-path="url(#clip091)" style="stroke:#ff0000; stroke-linecap:round; stroke-linejoin:round; stroke-width:8; stroke-opacity:1; fill:none" points="240.392,813.428 260.9,813.257 281.409,813.085 301.917,812.913 322.425,812.741 342.934,812.57 363.442,812.398 383.951,812.226 404.459,812.055 424.967,811.883 445.476,811.711 465.984,811.539 486.492,811.368 507.001,811.196 527.509,811.024 548.018,810.853 568.526,810.885 589.034,810.953 609.543,811.022 630.051,811.09 650.56,811.159 671.068,811.227 691.576,811.296 712.085,811.364 732.593,811.433 753.102,811.501 773.61,811.57 794.118,811.638 814.627,811.707 835.135,811.775 855.643,811.801 876.152,811.772 896.66,811.743 917.169,811.714 937.677,811.685 958.185,811.656 978.694,811.627 999.202,811.598 1019.71,811.569 1040.22,811.54 1060.73,811.511 1081.24,811.483 1101.74,811.454 1122.25,811.425 1142.76,811.396 1163.27,811.367 1183.78,811.338 1204.29,811.309 1224.79,811.28 1245.3,811.251 1265.81,811.222 1286.32,811.193 1306.83,811.165 1327.34,811.136 1347.84,811.107 1368.35,811.078 1388.86,811.049 1409.37,811.02 1429.88,810.991 1450.39,810.962 1470.9,810.933 1491.4,810.904 1511.91,810.875 1532.42,810.847 1552.93,810.818 1573.44,810.789 1593.95,810.76 1614.45,810.731 1634.96,810.702 1655.47,810.673 1675.98,810.644 1696.49,810.615 1717,810.586 1737.5,810.557 1758.01,810.529 1778.52,810.5 1799.03,810.471 1819.54,810.442 1840.05,810.413 1860.55,810.384 1881.06,810.355 1901.57,810.326 1922.08,810.297 1942.59,810.268 1963.1,810.239 1983.6,810.211 2004.11,810.182 2024.62,810.153 2045.13,810.124 2065.64,810.095 2086.15,810.066 2106.66,810.037 2127.16,810.008 2147.67,809.979 2168.18,809.95 2188.69,809.921 2209.2,809.893 2229.71,809.864 2250.21,809.835 2270.72,809.806 2291.23,809.777 "/>
<path clip-path="url(#clip090)" d="M251.33 250.738 L877.628 250.738 L877.628 95.2176 L251.33 95.2176  Z" fill="#ffffff" fill-rule="evenodd" fill-opacity="1"/>
<polyline clip-path="url(#clip090)" style="stroke:#000000; stroke-linecap:round; stroke-linejoin:round; stroke-width:4; stroke-opacity:1; fill:none" points="251.33,250.738 877.628,250.738 877.628,95.2176 251.33,95.2176 251.33,250.738 "/>
<circle clip-path="url(#clip090)" cx="347.947" cy="147.058" r="20.48" fill="#009af9" fill-rule="evenodd" fill-opacity="0.4" stroke="#000000" stroke-opacity="0.4" stroke-width="4.55111"/>
<path clip-path="url(#clip090)" d="M444.564 129.778 L473.8 129.778 L473.8 133.713 L461.532 133.713 L461.532 164.338 L456.833 164.338 L456.833 133.713 L444.564 133.713 L444.564 129.778 Z" fill="#000000" fill-rule="nonzero" fill-opacity="1" /><path clip-path="url(#clip090)" d="M486.184 142.393 Q485.467 141.977 484.61 141.791 Q483.777 141.583 482.758 141.583 Q479.147 141.583 477.203 143.944 Q475.282 146.282 475.282 150.68 L475.282 164.338 L470.999 164.338 L470.999 138.412 L475.282 138.412 L475.282 142.44 Q476.624 140.078 478.777 138.944 Q480.93 137.787 484.008 137.787 Q484.448 137.787 484.981 137.856 Q485.513 137.903 486.161 138.018 L486.184 142.393 Z" fill="#000000" fill-rule="nonzero" fill-opacity="1" /><path clip-path="url(#clip090)" d="M502.434 151.305 Q497.272 151.305 495.282 152.486 Q493.291 153.666 493.291 156.514 Q493.291 158.782 494.772 160.125 Q496.277 161.444 498.846 161.444 Q502.388 161.444 504.518 158.944 Q506.67 156.421 506.67 152.254 L506.67 151.305 L502.434 151.305 M510.93 149.546 L510.93 164.338 L506.67 164.338 L506.67 160.402 Q505.212 162.763 503.036 163.898 Q500.86 165.009 497.712 165.009 Q493.731 165.009 491.37 162.787 Q489.032 160.541 489.032 156.791 Q489.032 152.416 491.948 150.194 Q494.888 147.972 500.698 147.972 L506.67 147.972 L506.67 147.555 Q506.67 144.615 504.726 143.018 Q502.805 141.398 499.309 141.398 Q497.087 141.398 494.981 141.93 Q492.874 142.463 490.93 143.527 L490.93 139.592 Q493.268 138.69 495.467 138.25 Q497.666 137.787 499.749 137.787 Q505.374 137.787 508.152 140.703 Q510.93 143.62 510.93 149.546 Z" fill="#000000" fill-rule="nonzero" fill-opacity="1" /><path clip-path="url(#clip090)" d="M519.703 138.412 L523.962 138.412 L523.962 164.338 L519.703 164.338 L519.703 138.412 M519.703 128.319 L523.962 128.319 L523.962 133.713 L519.703 133.713 L519.703 128.319 Z" fill="#000000" fill-rule="nonzero" fill-opacity="1" /><path clip-path="url(#clip090)" d="M554.425 148.689 L554.425 164.338 L550.165 164.338 L550.165 148.828 Q550.165 145.148 548.73 143.319 Q547.295 141.49 544.425 141.49 Q540.976 141.49 538.985 143.69 Q536.994 145.889 536.994 149.685 L536.994 164.338 L532.712 164.338 L532.712 138.412 L536.994 138.412 L536.994 142.44 Q538.522 140.102 540.582 138.944 Q542.666 137.787 545.374 137.787 Q549.841 137.787 552.133 140.565 Q554.425 143.319 554.425 148.689 Z" fill="#000000" fill-rule="nonzero" fill-opacity="1" /><path clip-path="url(#clip090)" d="M562.92 138.412 L567.179 138.412 L567.179 164.338 L562.92 164.338 L562.92 138.412 M562.92 128.319 L567.179 128.319 L567.179 133.713 L562.92 133.713 L562.92 128.319 Z" fill="#000000" fill-rule="nonzero" fill-opacity="1" /><path clip-path="url(#clip090)" d="M597.642 148.689 L597.642 164.338 L593.383 164.338 L593.383 148.828 Q593.383 145.148 591.948 143.319 Q590.513 141.49 587.642 141.49 Q584.193 141.49 582.202 143.69 Q580.212 145.889 580.212 149.685 L580.212 164.338 L575.929 164.338 L575.929 138.412 L580.212 138.412 L580.212 142.44 Q581.739 140.102 583.8 138.944 Q585.883 137.787 588.591 137.787 Q593.059 137.787 595.35 140.565 Q597.642 143.319 597.642 148.689 Z" fill="#000000" fill-rule="nonzero" fill-opacity="1" /><path clip-path="url(#clip090)" d="M623.198 151.074 Q623.198 146.444 621.276 143.898 Q619.378 141.352 615.929 141.352 Q612.503 141.352 610.582 143.898 Q608.684 146.444 608.684 151.074 Q608.684 155.68 610.582 158.226 Q612.503 160.773 615.929 160.773 Q619.378 160.773 621.276 158.226 Q623.198 155.68 623.198 151.074 M627.457 161.12 Q627.457 167.74 624.517 170.958 Q621.577 174.199 615.512 174.199 Q613.267 174.199 611.276 173.851 Q609.286 173.527 607.411 172.833 L607.411 168.689 Q609.286 169.708 611.114 170.194 Q612.943 170.68 614.841 170.68 Q619.031 170.68 621.114 168.481 Q623.198 166.305 623.198 161.884 L623.198 159.777 Q621.878 162.069 619.818 163.203 Q617.758 164.338 614.887 164.338 Q610.119 164.338 607.202 160.703 Q604.286 157.069 604.286 151.074 Q604.286 145.055 607.202 141.421 Q610.119 137.787 614.887 137.787 Q617.758 137.787 619.818 138.921 Q621.878 140.055 623.198 142.347 L623.198 138.412 L627.457 138.412 L627.457 161.12 Z" fill="#000000" fill-rule="nonzero" fill-opacity="1" /><path clip-path="url(#clip090)" d="M656.16 133.62 L656.16 160.495 L661.808 160.495 Q668.961 160.495 672.271 157.254 Q675.605 154.014 675.605 147.023 Q675.605 140.078 672.271 136.861 Q668.961 133.62 661.808 133.62 L656.16 133.62 M651.484 129.778 L661.091 129.778 Q671.137 129.778 675.836 133.967 Q680.535 138.134 680.535 147.023 Q680.535 155.958 675.813 160.148 Q671.091 164.338 661.091 164.338 L651.484 164.338 L651.484 129.778 Z" fill="#000000" fill-rule="nonzero" fill-opacity="1" /><path clip-path="url(#clip090)" d="M699.586 151.305 Q694.424 151.305 692.433 152.486 Q690.443 153.666 690.443 156.514 Q690.443 158.782 691.924 160.125 Q693.429 161.444 695.998 161.444 Q699.54 161.444 701.669 158.944 Q703.822 156.421 703.822 152.254 L703.822 151.305 L699.586 151.305 M708.081 149.546 L708.081 164.338 L703.822 164.338 L703.822 160.402 Q702.364 162.763 700.188 163.898 Q698.012 165.009 694.864 165.009 Q690.882 165.009 688.521 162.787 Q686.183 160.541 686.183 156.791 Q686.183 152.416 689.1 150.194 Q692.04 147.972 697.85 147.972 L703.822 147.972 L703.822 147.555 Q703.822 144.615 701.878 143.018 Q699.956 141.398 696.461 141.398 Q694.239 141.398 692.132 141.93 Q690.026 142.463 688.081 143.527 L688.081 139.592 Q690.419 138.69 692.618 138.25 Q694.818 137.787 696.901 137.787 Q702.526 137.787 705.304 140.703 Q708.081 143.62 708.081 149.546 Z" fill="#000000" fill-rule="nonzero" fill-opacity="1" /><path clip-path="url(#clip090)" d="M721.067 131.051 L721.067 138.412 L729.84 138.412 L729.84 141.722 L721.067 141.722 L721.067 155.796 Q721.067 158.967 721.924 159.87 Q722.803 160.773 725.465 160.773 L729.84 160.773 L729.84 164.338 L725.465 164.338 Q720.535 164.338 718.66 162.509 Q716.785 160.657 716.785 155.796 L716.785 141.722 L713.66 141.722 L713.66 138.412 L716.785 138.412 L716.785 131.051 L721.067 131.051 Z" fill="#000000" fill-rule="nonzero" fill-opacity="1" /><path clip-path="url(#clip090)" d="M747.225 151.305 Q742.063 151.305 740.072 152.486 Q738.081 153.666 738.081 156.514 Q738.081 158.782 739.563 160.125 Q741.067 161.444 743.637 161.444 Q747.178 161.444 749.308 158.944 Q751.461 156.421 751.461 152.254 L751.461 151.305 L747.225 151.305 M755.72 149.546 L755.72 164.338 L751.461 164.338 L751.461 160.402 Q750.002 162.763 747.826 163.898 Q745.651 165.009 742.502 165.009 Q738.521 165.009 736.16 162.787 Q733.822 160.541 733.822 156.791 Q733.822 152.416 736.739 150.194 Q739.678 147.972 745.489 147.972 L751.461 147.972 L751.461 147.555 Q751.461 144.615 749.516 143.018 Q747.595 141.398 744.1 141.398 Q741.877 141.398 739.771 141.93 Q737.664 142.463 735.72 143.527 L735.72 139.592 Q738.058 138.69 740.257 138.25 Q742.456 137.787 744.539 137.787 Q750.164 137.787 752.942 140.703 Q755.72 143.62 755.72 149.546 Z" fill="#000000" fill-rule="nonzero" fill-opacity="1" /><polyline clip-path="url(#clip090)" style="stroke:#ff0000; stroke-linecap:round; stroke-linejoin:round; stroke-width:8; stroke-opacity:1; fill:none" points="275.484,198.898 420.41,198.898 "/>
<path clip-path="url(#clip090)" d="M449.24 185.46 L449.24 198.446 L455.12 198.446 Q458.384 198.446 460.166 196.756 Q461.948 195.067 461.948 191.942 Q461.948 188.84 460.166 187.15 Q458.384 185.46 455.12 185.46 L449.24 185.46 M444.564 181.618 L455.12 181.618 Q460.93 181.618 463.893 184.256 Q466.879 186.872 466.879 191.942 Q466.879 197.057 463.893 199.673 Q460.93 202.289 455.12 202.289 L449.24 202.289 L449.24 216.178 L444.564 216.178 L444.564 181.618 Z" fill="#000000" fill-rule="nonzero" fill-opacity="1" /><path clip-path="url(#clip090)" d="M487.157 194.233 Q486.439 193.817 485.583 193.631 Q484.749 193.423 483.731 193.423 Q480.12 193.423 478.175 195.784 Q476.254 198.122 476.254 202.52 L476.254 216.178 L471.971 216.178 L471.971 190.252 L476.254 190.252 L476.254 194.28 Q477.596 191.918 479.749 190.784 Q481.902 189.627 484.981 189.627 Q485.42 189.627 485.953 189.696 Q486.485 189.743 487.133 189.858 L487.157 194.233 Z" fill="#000000" fill-rule="nonzero" fill-opacity="1" /><path clip-path="url(#clip090)" d="M512.758 202.15 L512.758 204.233 L493.175 204.233 Q493.453 208.631 495.814 210.946 Q498.198 213.238 502.434 213.238 Q504.888 213.238 507.18 212.636 Q509.494 212.034 511.763 210.83 L511.763 214.858 Q509.471 215.83 507.064 216.34 Q504.656 216.849 502.18 216.849 Q495.976 216.849 492.342 213.238 Q488.731 209.627 488.731 203.469 Q488.731 197.104 492.157 193.377 Q495.606 189.627 501.439 189.627 Q506.67 189.627 509.703 193.006 Q512.758 196.363 512.758 202.15 M508.499 200.9 Q508.453 197.405 506.531 195.321 Q504.633 193.238 501.485 193.238 Q497.92 193.238 495.768 195.252 Q493.638 197.266 493.314 200.923 L508.499 200.9 Z" fill="#000000" fill-rule="nonzero" fill-opacity="1" /><path clip-path="url(#clip090)" d="M536.809 194.187 L536.809 180.159 L541.068 180.159 L541.068 216.178 L536.809 216.178 L536.809 212.289 Q535.467 214.603 533.406 215.738 Q531.369 216.849 528.499 216.849 Q523.8 216.849 520.837 213.099 Q517.897 209.349 517.897 203.238 Q517.897 197.127 520.837 193.377 Q523.8 189.627 528.499 189.627 Q531.369 189.627 533.406 190.761 Q535.467 191.872 536.809 194.187 M522.295 203.238 Q522.295 207.937 524.217 210.622 Q526.161 213.284 529.541 213.284 Q532.92 213.284 534.865 210.622 Q536.809 207.937 536.809 203.238 Q536.809 198.539 534.865 195.877 Q532.92 193.192 529.541 193.192 Q526.161 193.192 524.217 195.877 Q522.295 198.539 522.295 203.238 Z" fill="#000000" fill-rule="nonzero" fill-opacity="1" /><path clip-path="url(#clip090)" d="M549.841 190.252 L554.101 190.252 L554.101 216.178 L549.841 216.178 L549.841 190.252 M549.841 180.159 L554.101 180.159 L554.101 185.553 L549.841 185.553 L549.841 180.159 Z" fill="#000000" fill-rule="nonzero" fill-opacity="1" /><path clip-path="url(#clip090)" d="M581.67 191.247 L581.67 195.229 Q579.864 194.233 578.036 193.747 Q576.23 193.238 574.378 193.238 Q570.235 193.238 567.943 195.877 Q565.652 198.492 565.652 203.238 Q565.652 207.983 567.943 210.622 Q570.235 213.238 574.378 213.238 Q576.23 213.238 578.036 212.752 Q579.864 212.242 581.67 211.247 L581.67 215.182 Q579.888 216.016 577.966 216.432 Q576.068 216.849 573.915 216.849 Q568.059 216.849 564.61 213.168 Q561.161 209.488 561.161 203.238 Q561.161 196.895 564.633 193.261 Q568.128 189.627 574.193 189.627 Q576.161 189.627 578.036 190.043 Q579.911 190.437 581.67 191.247 Z" fill="#000000" fill-rule="nonzero" fill-opacity="1" /><path clip-path="url(#clip090)" d="M593.29 182.891 L593.29 190.252 L602.063 190.252 L602.063 193.562 L593.29 193.562 L593.29 207.636 Q593.29 210.807 594.147 211.71 Q595.026 212.613 597.688 212.613 L602.063 212.613 L602.063 216.178 L597.688 216.178 Q592.758 216.178 590.883 214.349 Q589.008 212.497 589.008 207.636 L589.008 193.562 L585.883 193.562 L585.883 190.252 L589.008 190.252 L589.008 182.891 L593.29 182.891 Z" fill="#000000" fill-rule="nonzero" fill-opacity="1" /><path clip-path="url(#clip090)" d="M607.665 190.252 L611.924 190.252 L611.924 216.178 L607.665 216.178 L607.665 190.252 M607.665 180.159 L611.924 180.159 L611.924 185.553 L607.665 185.553 L607.665 180.159 Z" fill="#000000" fill-rule="nonzero" fill-opacity="1" /><path clip-path="url(#clip090)" d="M630.883 193.238 Q627.457 193.238 625.466 195.923 Q623.475 198.585 623.475 203.238 Q623.475 207.891 625.443 210.576 Q627.434 213.238 630.883 213.238 Q634.285 213.238 636.276 210.553 Q638.267 207.867 638.267 203.238 Q638.267 198.631 636.276 195.946 Q634.285 193.238 630.883 193.238 M630.883 189.627 Q636.438 189.627 639.609 193.238 Q642.781 196.849 642.781 203.238 Q642.781 209.604 639.609 213.238 Q636.438 216.849 630.883 216.849 Q625.304 216.849 622.133 213.238 Q618.985 209.604 618.985 203.238 Q618.985 196.849 622.133 193.238 Q625.304 189.627 630.883 189.627 Z" fill="#000000" fill-rule="nonzero" fill-opacity="1" /><path clip-path="url(#clip090)" d="M671.392 200.529 L671.392 216.178 L667.132 216.178 L667.132 200.668 Q667.132 196.988 665.697 195.159 Q664.262 193.33 661.392 193.33 Q657.943 193.33 655.952 195.53 Q653.961 197.729 653.961 201.525 L653.961 216.178 L649.679 216.178 L649.679 190.252 L653.961 190.252 L653.961 194.28 Q655.489 191.942 657.549 190.784 Q659.633 189.627 662.341 189.627 Q666.808 189.627 669.1 192.405 Q671.392 195.159 671.392 200.529 Z" fill="#000000" fill-rule="nonzero" fill-opacity="1" /><path clip-path="url(#clip090)" d="M705.188 180.206 Q702.086 185.53 700.581 190.738 Q699.077 195.946 699.077 201.293 Q699.077 206.641 700.581 211.895 Q702.109 217.127 705.188 222.428 L701.484 222.428 Q698.012 216.988 696.276 211.733 Q694.563 206.479 694.563 201.293 Q694.563 196.131 696.276 190.9 Q697.989 185.668 701.484 180.206 L705.188 180.206 Z" fill="#000000" fill-rule="nonzero" fill-opacity="1" /><path clip-path="url(#clip090)" d="M713.012 226.039 L713.012 190.252 L717.271 190.252 L717.271 206.363 Q717.271 209.719 718.868 211.432 Q720.466 213.145 723.59 213.145 Q727.016 213.145 728.729 211.201 Q730.465 209.256 730.465 205.367 L730.465 190.252 L734.725 190.252 L734.725 210.205 Q734.725 211.594 735.118 212.266 Q735.535 212.914 736.391 212.914 Q736.6 212.914 736.97 212.798 Q737.34 212.659 737.989 212.381 L737.989 215.807 Q737.039 216.34 736.183 216.594 Q735.35 216.849 734.54 216.849 Q732.942 216.849 731.993 215.946 Q731.044 215.043 730.697 213.191 Q729.54 215.02 727.85 215.946 Q726.183 216.849 723.915 216.849 Q721.553 216.849 719.887 215.946 Q718.243 215.043 717.271 213.238 L717.271 226.039 L713.012 226.039 Z" fill="#000000" fill-rule="nonzero" fill-opacity="1" /><path clip-path="url(#clip090)" d="M776.021 186.455 L776.021 195.414 L788.914 195.414 L788.914 199.349 L776.021 199.349 L776.021 208.307 L772.132 208.307 L772.132 199.349 L759.238 199.349 L759.238 195.414 L772.132 195.414 L772.132 186.455 L776.021 186.455 M759.238 212.242 L788.914 212.242 L788.914 216.178 L759.238 216.178 L759.238 212.242 Z" fill="#000000" fill-rule="nonzero" fill-opacity="1" /><path clip-path="url(#clip090)" d="M823.521 193.631 Q820.002 193.631 818.104 196.178 Q816.113 198.84 816.113 203.238 Q816.113 207.891 818.081 210.576 Q820.071 213.238 823.521 213.238 Q826.923 213.238 828.914 210.553 Q830.905 207.867 830.905 203.238 Q830.905 199.002 828.914 196.178 Q827.085 193.631 823.521 193.631 M823.521 190.252 L837.664 190.252 L837.664 194.511 L832.895 194.511 Q835.419 198.122 835.419 203.238 Q835.419 209.604 832.247 213.215 Q829.076 216.849 823.521 216.849 Q817.942 216.849 814.794 213.215 Q811.622 209.604 811.622 203.238 Q811.622 196.826 814.794 193.238 Q817.409 190.252 823.521 190.252 Z" fill="#000000" fill-rule="nonzero" fill-opacity="1" /><path clip-path="url(#clip090)" d="M842.849 180.206 L846.553 180.206 Q850.025 185.668 851.738 190.9 Q853.474 196.131 853.474 201.293 Q853.474 206.479 851.738 211.733 Q850.025 216.988 846.553 222.428 L842.849 222.428 Q845.928 217.127 847.432 211.895 Q848.96 206.641 848.96 201.293 Q848.96 195.946 847.432 190.738 Q845.928 185.53 842.849 180.206 Z" fill="#000000" fill-rule="nonzero" fill-opacity="1" /></svg>
